<?xml version="1.0" standalone="no"?>
<!DOCTYPE svg PUBLIC "-//W3C//DTD SVG 20010904//EN"
 "http://www.w3.org/TR/2001/REC-SVG-20010904/DTD/svg10.dtd">
<svg version="1.0" xmlns="http://www.w3.org/2000/svg"
 width="600.000000pt" height="600.000000pt" viewBox="0 0 600.000000 600.000000"
 preserveAspectRatio="xMidYMid meet">

<g transform="translate(0.000000,600.000000) scale(0.100000,-0.100000)"
fill="#000000" stroke="none">
<path d="M150 5752 c-33 -16 -67 -44 -87 -70 -68 -90 -63 120 -61 -2707 l3
-2560 29 -53 c33 -58 80 -101 140 -126 35 -15 282 -16 2826 -16 2526 0 2791 1
2826 16 59 25 103 63 135 118 l29 51 0 2590 c0 2485 -1 2592 -19 2630 -28 61
-67 102 -126 129 l-54 26 -2793 0 -2793 0 -55 -28z m3048 -603 c233 -26 394
-74 617 -184 497 -246 842 -699 962 -1265 23 -110 26 -544 4 -655 -145 -735
-687 -1290 -1410 -1446 -67 -14 -151 -22 -275 -26 l-178 -6 51 64 c292 363
341 871 124 1291 -25 50 -67 117 -92 150 -25 34 -52 69 -60 79 -12 17 20 52
360 399 206 209 376 380 380 380 3 0 83 -75 179 -166 l173 -167 70 72 71 72
-50 48 c-279 271 -784 751 -791 751 -5 0 -31 -24 -59 -52 -89 -94 -99 -68 92
-253 l169 -163 -380 -381 -380 -381 -65 46 c-186 130 -428 204 -670 204 -277
0 -533 -91 -752 -266 -37 -30 -69 -54 -72 -54 -10 0 -6 210 4 305 27 234 84
427 186 628 335 665 1056 1058 1792 976z m-1260 -1882 c46 -23 94 -75 113
-123 15 -41 14 -133 -3 -174 -48 -114 -171 -172 -293 -139 -54 15 -139 100
-154 154 -23 85 -8 162 47 225 74 87 184 109 290 57z m854 -881 c65 -19 113
-59 143 -119 92 -185 -78 -392 -275 -334 -101 30 -170 122 -170 227 0 68 25
123 77 173 63 60 141 79 225 53z m-1333 -1367 c47 -14 117 -71 144 -118 l18
-32 -77 -35 c-61 -29 -78 -33 -85 -22 -5 7 -9 16 -9 21 0 4 -15 16 -32 27 -68
41 -150 15 -188 -60 l-21 -40 -82 6 c-45 4 -84 8 -86 10 -3 3 3 28 12 57 50
156 229 239 406 186z m401 -279 l0 -290 -80 0 -80 0 0 290 0 290 80 0 80 0 0
-290z m1570 210 l0 -80 -75 0 -75 0 0 -210 0 -210 -90 0 -90 0 0 210 0 210
-75 0 -75 0 0 80 0 80 240 0 240 0 0 -80z m1220 -20 l0 -100 40 21 c57 30 112
35 163 15 71 -27 77 -47 77 -245 l0 -171 -75 0 -75 0 0 123 c0 95 -4 128 -16
145 -18 26 -59 29 -92 6 -21 -14 -22 -22 -22 -145 l0 -129 -80 0 -80 0 0 290
0 290 80 0 80 0 0 -100z m-2407 -61 c82 -22 143 -108 149 -209 l3 -45 -145 -5
-145 -5 29 -22 c33 -27 81 -30 131 -9 l34 14 30 -46 c36 -56 31 -66 -47 -88
-70 -21 -162 -14 -219 14 -104 54 -143 178 -88 288 49 98 158 144 268 113z
m1578 -16 c70 -36 108 -96 116 -182 l6 -61 -141 0 c-118 0 -140 -2 -136 -14
13 -34 86 -43 160 -21 16 5 26 -2 47 -34 15 -22 27 -45 27 -50 0 -15 -82 -43
-145 -48 -82 -7 -138 10 -190 58 -50 46 -68 90 -67 164 1 163 174 263 323 188z
m525 -1 c37 -19 72 -49 63 -55 -3 -1 -25 -22 -51 -46 -45 -42 -47 -43 -69 -27
-55 38 -129 2 -129 -62 0 -69 71 -106 129 -66 22 16 24 15 73 -32 l49 -49 -31
-26 c-85 -71 -250 -60 -327 23 -54 57 -69 167 -34 244 21 46 71 89 128 110 51
19 148 12 199 -14z m-1720 -97 c21 -63 41 -112 44 -109 3 3 21 53 41 112 l36
107 81 3 c45 2 82 -1 82 -5 0 -4 -35 -98 -78 -208 l-78 -200 -84 -3 -85 -3
-78 203 c-42 112 -77 206 -77 211 0 4 36 7 79 7 l80 0 37 -115z m-1401 -67
c40 -96 157 -122 219 -48 13 17 29 30 34 30 5 0 39 -14 76 -31 75 -35 75 -37
8 -111 -59 -65 -103 -83 -207 -83 -73 0 -100 5 -140 23 -91 42 -157 124 -171
211 l-7 41 87 0 87 0 14 -32z"/>
<path d="M2128 738 l-23 -23 64 -3 c35 -2 66 0 70 3 10 11 -39 45 -65 45 -13
0 -34 -10 -46 -22z"/>
<path d="M3679 741 c-13 -11 -21 -22 -18 -26 4 -3 35 -5 70 -3 l64 3 -22 23
c-28 27 -63 28 -94 3z"/>
</g>
</svg>
